<svg width="58" height="58" viewBox="0 0 58 58" fill="none" xmlns="http://www.w3.org/2000/svg">
<g id="Carrito de Compras">
<path id="Vector" d="M0 9.0625C0 8.5818 0.190959 8.12078 0.530869 7.78087C0.870779 7.44096 1.33179 7.25 1.8125 7.25H7.25C7.6543 7.25011 8.04696 7.3854 8.36553 7.63434C8.68409 7.88328 8.91028 8.23159 9.00812 8.62387L10.4762 14.5H52.5625C52.8378 14.5001 53.1095 14.5629 53.3569 14.6836C53.6043 14.8044 53.821 14.9799 53.9905 15.1969C54.1599 15.4138 54.2777 15.6666 54.3349 15.9359C54.3921 16.2052 54.3872 16.484 54.3206 16.7511L48.8831 38.5011C48.7853 38.8934 48.5591 39.2417 48.2405 39.4907C47.922 39.7396 47.5293 39.8749 47.125 39.875H14.5C14.0957 39.8749 13.703 39.7396 13.3845 39.4907C13.0659 39.2417 12.8397 38.8934 12.7419 38.5011L5.83625 10.875H1.8125C1.33179 10.875 0.870779 10.684 0.530869 10.3441C0.190959 10.0042 0 9.54321 0 9.0625ZM11.3825 18.125L13.195 25.375H18.125V18.125H11.3825ZM21.75 18.125V25.375H29V18.125H21.75ZM32.625 18.125V25.375H39.875V18.125H32.625ZM43.5 18.125V25.375H48.43L50.2425 18.125H43.5ZM47.5237 29H43.5V36.25H45.7112L47.5237 29ZM39.875 29H32.625V36.25H39.875V29ZM29 29H21.75V36.25H29V29ZM18.125 29H14.1012L15.9137 36.25H18.125V29ZM18.125 47.125C17.1636 47.125 16.2416 47.5069 15.5617 48.1867C14.8819 48.8666 14.5 49.7886 14.5 50.75C14.5 51.7114 14.8819 52.6334 15.5617 53.3133C16.2416 53.9931 17.1636 54.375 18.125 54.375C19.0864 54.375 20.0084 53.9931 20.6883 53.3133C21.3681 52.6334 21.75 51.7114 21.75 50.75C21.75 49.7886 21.3681 48.8666 20.6883 48.1867C20.0084 47.5069 19.0864 47.125 18.125 47.125ZM10.875 50.75C10.875 48.8272 11.6388 46.9831 12.9985 45.6235C14.3581 44.2638 16.2022 43.5 18.125 43.5C20.0478 43.5 21.8919 44.2638 23.2515 45.6235C24.6112 46.9831 25.375 48.8272 25.375 50.75C25.375 52.6728 24.6112 54.5169 23.2515 55.8765C21.8919 57.2362 20.0478 58 18.125 58C16.2022 58 14.3581 57.2362 12.9985 55.8765C11.6388 54.5169 10.875 52.6728 10.875 50.75ZM43.5 47.125C42.5386 47.125 41.6166 47.5069 40.9367 48.1867C40.2569 48.8666 39.875 49.7886 39.875 50.75C39.875 51.7114 40.2569 52.6334 40.9367 53.3133C41.6166 53.9931 42.5386 54.375 43.5 54.375C44.4614 54.375 45.3834 53.9931 46.0633 53.3133C46.7431 52.6334 47.125 51.7114 47.125 50.75C47.125 49.7886 46.7431 48.8666 46.0633 48.1867C45.3834 47.5069 44.4614 47.125 43.5 47.125ZM36.25 50.75C36.25 48.8272 37.0138 46.9831 38.3735 45.6235C39.7331 44.2638 41.5772 43.5 43.5 43.5C45.4228 43.5 47.2669 44.2638 48.6265 45.6235C49.9862 46.9831 50.75 48.8272 50.75 50.75C50.75 52.6728 49.9862 54.5169 48.6265 55.8765C47.2669 57.2362 45.4228 58 43.5 58C41.5772 58 39.7331 57.2362 38.3735 55.8765C37.0138 54.5169 36.25 52.6728 36.25 50.75Z" fill="white"/>
</g>
</svg>
