<svg width="58" height="58" viewBox="0 0 58 58" fill="none" xmlns="http://www.w3.org/2000/svg">
<g id="bi:bicycle">
<path id="Vector" d="M14.5 16.3125C14.5 15.8318 14.691 15.3708 15.0309 15.0309C15.3708 14.691 15.8318 14.5 16.3125 14.5H21.75C22.2307 14.5 22.6917 14.691 23.0316 15.0309C23.3715 15.3708 23.5625 15.8318 23.5625 16.3125C23.5625 16.7932 23.3715 17.2542 23.0316 17.5941C22.6917 17.934 22.2307 18.125 21.75 18.125V19.9375H36.7575L38.1567 15.7398C38.2769 15.379 38.5075 15.0651 38.8158 14.8427C39.1242 14.6202 39.4947 14.5003 39.875 14.5H43.5C43.9807 14.5 44.4417 14.691 44.7816 15.0309C45.1215 15.3708 45.3125 15.8318 45.3125 16.3125C45.3125 16.7932 45.1215 17.2542 44.7816 17.5941C44.4417 17.934 43.9807 18.125 43.5 18.125H41.18L40.0526 21.5144L42.978 26.1906C45.4988 25.151 48.3182 25.0964 50.8775 26.0375C53.4367 26.9786 55.549 28.8468 56.7958 31.2719C58.0426 33.697 58.3328 36.5019 57.609 39.1309C56.8852 41.7599 55.2002 44.021 52.8879 45.4662C50.5755 46.9114 47.8047 47.4352 45.1244 46.9338C42.4441 46.4324 40.0499 44.9424 38.4164 42.759C36.7829 40.5756 36.0293 37.8583 36.3048 35.1454C36.5803 32.4326 37.8649 29.9222 39.904 28.1119L38.0625 25.1684L30.537 37.2106C30.3741 37.4713 30.1475 37.6863 29.8786 37.8353C29.6098 37.9843 29.3074 38.0625 29 38.0625H21.6014C21.2254 40.2853 20.168 42.3364 18.5753 43.9319C16.9826 45.5275 14.9334 46.5886 12.7113 46.9685C10.4891 47.3484 8.20379 47.0283 6.17151 46.0525C4.13923 45.0767 2.46044 43.4934 1.36739 41.5217C0.274343 39.55 -0.178924 37.2874 0.0702981 35.0468C0.31952 32.8062 1.25891 30.6985 2.75851 29.0151C4.2581 27.3318 6.24377 26.1561 8.44081 25.6508C10.6378 25.1454 12.9376 25.3353 15.022 26.1943L18.125 21.228V18.125H16.3125C15.8318 18.125 15.3708 17.934 15.0309 17.5941C14.691 17.2542 14.5 16.7932 14.5 16.3125ZM19.9375 25.1684L18.096 28.1191C19.9085 29.7286 21.1772 31.9399 21.6014 34.4375H25.7302L19.9375 25.1684ZM29 32.8316L34.7927 23.5625H23.2072L29 32.8316ZM17.8966 34.4375C17.5882 33.2448 16.9806 32.1506 16.1312 31.2584L14.1447 34.4375H17.8966ZM13.0609 29.3335C11.678 28.8968 10.1959 28.8848 8.80614 29.2992C7.41638 29.7136 6.18283 30.5352 5.26488 31.6579C4.34693 32.7806 3.78678 34.1528 3.6568 35.5972C3.52682 37.0415 3.833 38.4917 4.53576 39.7603C5.23853 41.0288 6.30558 42.0575 7.59903 42.7133C8.89248 43.3691 10.3529 43.6219 11.7915 43.4391C13.2302 43.2563 14.5809 42.6463 15.6693 41.6878C16.7576 40.7293 17.5335 39.4665 17.8966 38.0625H10.875C10.5515 38.0625 10.2338 37.9759 9.95504 37.8117C9.67627 37.6475 9.44654 37.4116 9.2897 37.1286C9.13286 36.8457 9.05462 36.5259 9.06312 36.2024C9.07161 35.879 9.16652 35.5637 9.33799 35.2894L13.0609 29.3335ZM41.8687 31.2547C40.6537 32.5344 39.947 34.2132 39.8813 35.9766C39.8155 37.74 40.3951 39.4668 41.5114 40.8334C42.6277 42.2 44.2042 43.1126 45.9452 43.4C47.6862 43.6875 49.4723 43.3301 50.9687 42.3949C52.4651 41.4596 53.569 40.0108 54.0736 38.3198C54.5781 36.6289 54.4486 34.812 53.7094 33.2097C52.9701 31.6074 51.6719 30.3297 50.058 29.6161C48.4442 28.9025 46.6254 28.8021 44.9427 29.3335L48.662 35.2894C48.7881 35.4912 48.8733 35.7159 48.9126 35.9507C48.9519 36.1854 48.9446 36.4256 48.8911 36.6576C48.8376 36.8895 48.7389 37.1086 48.6007 37.3024C48.4625 37.4962 48.2875 37.6609 48.0856 37.787C47.8838 37.9132 47.6591 37.9983 47.4243 38.0376C47.1896 38.0769 46.9494 38.0696 46.7174 38.0161C46.4855 37.9626 46.2664 37.8639 46.0726 37.7257C45.8788 37.5875 45.7141 37.4125 45.588 37.2106L41.8687 31.2584V31.2547Z" fill="white"/>
</g>
</svg>
