<?xml version="1.0" encoding="UTF-8" standalone="no" ?>
<!DOCTYPE svg PUBLIC "-//W3C//DTD SVG 1.1//EN" "http://www.w3.org/Graphics/SVG/1.1/DTD/svg11.dtd">
<svg xmlns="http://www.w3.org/2000/svg" xmlns:xlink="http://www.w3.org/1999/xlink" version="1.1" width="500" height="500" viewBox="0 0 500 500" xml:space="preserve">
<desc>Created with Fabric.js 5.3.0</desc>
<defs>
</defs>
<g transform="matrix(2.6526130549 0 0 2.6526130549 249.2098311339 249.2098311339)" id="QJLzTI0XY9JmUHC5eWQI2"  >
<g style=""   >
		<g transform="matrix(0.7584269628 0 0 0.7584269628 0 0)" id="loShLZRgmTrfqyMmsG_Et"  >
<path style="stroke: rgb(0,0,0); stroke-width: 0; stroke-dasharray: none; stroke-linecap: butt; stroke-dashoffset: 0; stroke-linejoin: miter; stroke-miterlimit: 4; fill: rgb(6,50,123); fill-rule: nonzero; opacity: 1;"  transform=" translate(0, 0)" d="M -124.47553 -124.47553 L 124.47552 -124.47553 L 124.47552 124.47552 L -124.47553 124.47552 z" stroke-linecap="round" />
</g>
		<g transform="matrix(0.9501317116 0 0 0.9501317116 -9.4855027554 43.4613682112)" id="DrQ66xw2y0ENxE__eUHtw"  >
<path style="stroke: rgb(0,0,0); stroke-width: 1; stroke-dasharray: none; stroke-linecap: butt; stroke-dashoffset: 0; stroke-linejoin: miter; stroke-miterlimit: 4; fill: rgb(247,167,30); fill-rule: nonzero; opacity: 1;"  transform=" translate(0, 0)" d="M 0 -7.8561 C 4.33657 -7.8561 7.8561 -4.33657 7.8561 0 C 7.8561 4.33657 4.33657 7.8561 0 7.8561 C -4.33657 7.8561 -7.8561 4.33657 -7.8561 0 C -7.8561 -4.33657 -4.33657 -7.8561 0 -7.8561 z" stroke-linecap="round" />
</g>
		<g transform="matrix(0.9501317116 0 0 0.9501317116 23.2751433533 43.4613711427)" id="J8LFUnC6p-7YLa8a1v767"  >
<path style="stroke: rgb(0,0,0); stroke-width: 1; stroke-dasharray: none; stroke-linecap: butt; stroke-dashoffset: 0; stroke-linejoin: miter; stroke-miterlimit: 4; fill: rgb(247,167,30); fill-rule: nonzero; opacity: 1;"  transform=" translate(0, 0)" d="M 0 -7.8561 C 4.33657 -7.8561 7.8561 -4.33657 7.8561 0 C 7.8561 4.33657 4.33657 7.8561 0 7.8561 C -4.33657 7.8561 -7.8561 4.33657 -7.8561 0 C -7.8561 -4.33657 -4.33657 -7.8561 0 -7.8561 z" stroke-linecap="round" />
</g>
		<g transform="matrix(1 0 0 1 -42.8969674847 -37.6975775595)" id="_PmeprW-59icT6xxHWXGM"  >
<path style="stroke: rgb(0,0,0); stroke-width: 1; stroke-dasharray: none; stroke-linecap: butt; stroke-dashoffset: 0; stroke-linejoin: miter; stroke-miterlimit: 4; fill: rgb(255,255,255); fill-opacity: 0; fill-rule: nonzero; opacity: 1;"  transform=" translate(0, 0)" d="M 0 0" stroke-linecap="round" />
</g>
		<g transform="matrix(1 0 0 1 17.7822308626 -5.6015125012)" id="_bkY9c-BoXeWbkIY17GSn"  >
<path style="stroke: rgb(0,0,0); stroke-width: 1; stroke-dasharray: none; stroke-linecap: butt; stroke-dashoffset: 0; stroke-linejoin: miter; stroke-miterlimit: 4; fill: rgb(255,255,255); fill-rule: nonzero; opacity: 1;"  transform=" translate(0, 0)" d="M -61.1792 -31.59607 L -47.55481 -31.59607 L -14.54795 -66.08236 C -14.54795 -66.08236 -12.68703 -67.35561999999999 -10.72817 -67.15974 C -8.76931 -66.96385 -6.81044 -65.59265 -6.81044 -65.59265 L 55.115520000000004 -2.3726000000000056 C 55.115520000000004 -2.3726000000000056 56.23411 -0.7766700000000055 55.8731 0.18602999999999437 C 55.51209 1.1487299999999943 55.277 1.3893999999999944 54.193960000000004 2.231759999999994 C 53.11093 3.0741199999999944 33.857020000000006 2.773579999999994 33.857020000000006 2.773579999999994 L 33.857020000000006 61.27124 C 33.857020000000006 61.27124 33.616350000000004 64.03899 32.412980000000005 64.88135 C 31.209610000000005 65.72371 29.765570000000004 66.08472 29.765570000000004 66.08472 L -52.06355 66.08472 C -52.06355 66.08472 -54.10928 65.96438 -54.8313 64.88135 C -55.55332 63.79832 -56.03467 61.27124 -56.03467 61.27124 L -56.03467 41.29531 L -65.30061 41.29531 L -65.30061 64.88135 C -65.30061 64.88135 -65.05994000000001 70.41685 -61.810840000000006 73.06425999999999 C -58.56174000000001 75.71166999999998 -54.831300000000006 75.95235 -54.831300000000006 75.95235 L 29.76556999999999 75.95235 C 29.76556999999999 75.95235 36.86544999999999 75.35067 39.87386999999999 70.77785999999999 C 42.88228999999999 66.20505999999999 43.00262999999999 61.27123999999999 43.00262999999999 61.27123999999999 L 43.00262999999999 11.933089999999993 L 55.452229999999986 11.933089999999993 C 55.452229999999986 11.933089999999993 64.61835999999998 8.309079999999993 65.22004999999999 1.8108899999999934 C 65.82172999999999 -4.687300000000007 62.857019999999984 -7.502930000000006 62.857019999999984 -7.502930000000006 L -1.4451400000000163 -72.63945000000001 C -1.4451400000000163 -72.63945000000001 -5.175590000000016 -76.49023000000001 -11.433110000000017 -75.88855000000001 C -17.690630000000017 -75.28687000000001 -20.699050000000017 -72.63945000000001 -20.699050000000017 -72.63945000000001 z" stroke-linecap="round" />
</g>
		<g transform="matrix(1 0 0 1 -60.7562132302 22.1310609684)" id="tJ0vfPTmL2UIjpecwBnyS"  >
<path style="stroke: rgb(0,0,0); stroke-width: 1; stroke-dasharray: none; stroke-linecap: butt; stroke-dashoffset: 0; stroke-linejoin: miter; stroke-miterlimit: 4; fill: rgb(247,167,30); fill-rule: nonzero; opacity: 1;"  transform=" translate(0, 0)" d="M -28.23125 -2.27011 C -27.3817 -3.53031 -26.03069 -3.72273 -26.03069 -3.72273 L 25.95904 -3.72273 C 25.95904 -3.72273 28.71899 -3.0166999999999997 28.911540000000002 -0.19255999999999984 C 29.104090000000003 2.63157 25.95904 3.7227200000000003 25.95904 3.7227200000000003 L -26.03069 3.7227200000000003 C -26.03069 3.7227200000000003 -28.98319 3.46598 -28.91901 -0.19255999999999984 C -28.90026 -1.2612599999999998 -28.58182 -1.75009 -28.23125 -2.27011 z" stroke-linecap="round" />
</g>
		<g transform="matrix(1 0 0 1 -49.9693818097 6.7056447556)" id="4NpHTAy6UHWVYYjp5r7DH"  >
<path style="stroke: rgb(0,0,0); stroke-width: 1; stroke-dasharray: none; stroke-linecap: butt; stroke-dashoffset: 0; stroke-linejoin: miter; stroke-miterlimit: 4; fill: rgb(247,167,30); fill-rule: nonzero; opacity: 1;"  transform=" translate(0, 0)" d="M -10.78683 -3.69063 L 10.35835 -3.69063 C 10.35835 -3.69063 13.1183 -3.43389 13.37504 -0.3530199999999999 C 13.631780000000001 2.72785 10.74346 3.6906300000000005 10.74346 3.6906300000000005 L -10.78683 3.6906300000000005 C -10.78683 3.6906300000000005 -13.45423 3.3697100000000004 -13.39005 0.09628000000000059 C -13.32587 -3.1771499999999993 -10.78683 -3.6906299999999996 -10.78683 -3.6906299999999996 z" stroke-linecap="round" />
</g>
		<g transform="matrix(1 0 0 1 -60.7562132302 -8.3717396004)" id="oS7E-lppPjNf66qHOkaMD"  >
<path style="stroke: rgb(0,0,0); stroke-width: 1; stroke-dasharray: none; stroke-linecap: butt; stroke-dashoffset: 0; stroke-linejoin: miter; stroke-miterlimit: 4; fill: rgb(247,167,30); fill-rule: nonzero; opacity: 1;"  transform=" translate(0, 0)" d="M -15.33075 -3.4018 L 15.28542 -3.4018 C 15.28542 -3.4018 18.21194 -3.01669 18.40449 0 C 18.59704 3.01669 15.285419999999998 3.4018 15.285419999999998 3.4018 L -15.330750000000002 3.4018 C -15.330750000000002 3.4018 -18.475810000000003 4.04365 -18.411620000000003 0 C -18.347440000000002 -4.04365 -15.330750000000002 -3.4018 -15.330750000000002 -3.4018 z" stroke-linecap="round" />
</g>
		<g transform="matrix(1 0 0 1 -8.4861431571 1.4862941883)" id="sMGFG2UuR1mQQAIrBHNNI"  >
<path style="stroke: rgb(0,0,0); stroke-width: 1; stroke-dasharray: none; stroke-linecap: butt; stroke-dashoffset: 0; stroke-linejoin: miter; stroke-miterlimit: 4; fill: rgb(247,167,30); fill-rule: nonzero; opacity: 1;"  transform=" translate(0, 0)" d="M -26.12248 -21.91148 L -9.830949999999998 26.96312 C -9.830949999999998 26.96312 -9.339289999999998 28.53147 -8.938749999999997 29.11002 C -8.538219999999997 29.68857 -7.341309999999997 30.26712 -7.341309999999997 30.26712 L 38.52121 30.26712 C 38.52121 30.26712 39.427310000000006 29.93374 40.25103 29.11002 C 41.07475 28.286299999999997 41.56899 27.413719999999998 41.56899 27.413719999999998 L 49.06487 -5.918970000000002 C 49.06487 -5.918970000000002 49.39436 -7.841630000000002 48.24115 -9.324330000000002 C 47.087939999999996 -10.807030000000001 45.111 -10.724660000000002 45.111 -10.724660000000002 L -13.12623 -11.136520000000003 L -19.04252 -27.466460000000005 C -19.04252 -27.466460000000005 -19.86624 -29.608140000000006 -21.34895 -29.855260000000005 C -22.83165 -30.102380000000004 -45.73116 -30.267120000000006 -45.73116 -30.267120000000006 C -45.73116 -30.267120000000006 -49.108430000000006 -29.855260000000005 -49.108430000000006 -26.807480000000005 C -49.108430000000006 -23.759700000000006 -47.460980000000006 -23.018350000000005 -45.73116 -22.441750000000006 C -44.001340000000006 -21.865140000000007 -26.122480000000003 -21.911480000000005 -26.122480000000003 -21.911480000000005 z" stroke-linecap="round" />
</g>
		<g transform="matrix(1 0 0 1 -7.3680057273 -25.6938059192)" id="ufm9S0oF0AsVcwUUzCcrW"  >
<path style="stroke: rgb(0,0,0); stroke-width: 1; stroke-dasharray: none; stroke-linecap: butt; stroke-dashoffset: 0; stroke-linejoin: miter; stroke-miterlimit: 4; fill: rgb(112,192,67); fill-rule: nonzero; opacity: 1;"  transform=" translate(0, 0)" d="M 7.46919 10.37924 C 7.46919 10.37924 -3.7066600000000003 13.82204 -7.785049999999999 3.7584799999999996 C -11.863439999999999 -6.305080000000001 -9.7448 -10.935120000000001 -9.7448 -10.935120000000001 C -9.7448 -10.935120000000001 -2.27658 -11.411810000000001 3.443760000000001 -6.433000000000002 C 4.362610000000001 -5.633260000000002 5.310510000000001 -4.699430000000001 6.057040000000001 -3.8534900000000016 C 7.19549 -2.5634400000000017 8.00604 -1.3373700000000017 8.6347 0.0006699999999981721 C 10.16018 3.2475099999999983 10.294880000000001 6.225909999999999 10.294880000000001 6.225909999999999 L -0.10496999999999979 -1.9308700000000005 z" stroke-linecap="round" />
</g>
		<g transform="matrix(1 0 0 1 19.0999599766 -28.588741243)" id="QHaKw-gOs6SS9bjx4mQVw"  >
<path style="stroke: rgb(0,0,0); stroke-width: 1; stroke-dasharray: none; stroke-linecap: butt; stroke-dashoffset: 0; stroke-linejoin: miter; stroke-miterlimit: 4; fill: rgb(112,192,67); fill-rule: nonzero; opacity: 1;"  transform=" translate(0, 0)" d="M -11.00979 -0.26675 C -12.82536 3.9314400000000003 -12.78513 8.01415 -12.78513 8.01415 C -12.78513 8.01415 -10.77242 3.935760000000001 -6.64106 1.1285600000000011 C -2.5097000000000005 -1.6786399999999988 1.6216499999999998 -2.473129999999999 1.6216499999999998 -2.473129999999999 L -9.34233 11.93365 C -9.34233 11.93365 -3.72792 16.06501 5.7000399999999996 9.550180000000001 C 15.12801 3.035350000000001 12.42673 -13.22524 12.42673 -13.22524 C 12.42673 -13.22524 1.7805399999999985 -12.63088 -4.15166 -8.552489999999999 C -6.73629 -6.775559999999999 -9.60801 -3.508119999999999 -11.009789999999999 -0.266729999999999 z" stroke-linecap="round" />
</g>
		<g transform="matrix(1 0 0 1 -12.0206839493 3.3417256416)" id="vgWog72gHt65L-OdKlnUw"  >
<path style="stroke: rgb(0,0,0); stroke-width: 1; stroke-dasharray: none; stroke-linecap: butt; stroke-dashoffset: 0; stroke-linejoin: miter; stroke-miterlimit: 4; fill: rgb(6,50,123); fill-rule: nonzero; opacity: 1;"  transform=" translate(0, 0)" d="M -7.06012 -4.46773 L 6.01214 -4.46773 L 7.060129999999999 4.46774 L -3.8610000000000007 4.46774 z" stroke-linecap="round" />
</g>
		<g transform="matrix(1 0 0 1.0225822842 6.9533921677 3.3141470426)" id="rwFojo5SFgFlMnlWJIhq9"  >
<path style="stroke: rgb(0,0,0); stroke-width: 1; stroke-dasharray: none; stroke-linecap: butt; stroke-dashoffset: 0; stroke-linejoin: miter; stroke-miterlimit: 4; fill: rgb(6,50,123); fill-rule: nonzero; opacity: 1;"  transform=" translate(0, 0)" d="M -6.45339 -4.385 L 6.45339 -4.385 L 5.90182 4.38499 L -5.846660000000001 4.38499 z" stroke-linecap="round" />
</g>
		<g transform="matrix(1 0 0 0.9729919516 25.0409429437 3.3417256416)" id="MydlUcN1cbKpAfa_aHkn9"  >
<path style="stroke: rgb(0,0,0); stroke-width: 1; stroke-dasharray: none; stroke-linecap: butt; stroke-dashoffset: 0; stroke-linejoin: miter; stroke-miterlimit: 4; fill: rgb(6,50,123); fill-rule: nonzero; opacity: 1;"  transform=" translate(0, 0)" d="M -5.07045 -4.60563 L 6.1735999999999995 -4.60563 L 4.085649999999999 4.60562 L -6.173590000000001 4.60562 z" stroke-linecap="round" />
</g>
		<g transform="matrix(1 0 0 1 -8.4354660783 18.7030052886)" id="is9d6KrXg6rqz1K2pkm1P"  >
<path style="stroke: rgb(0,0,0); stroke-width: 1; stroke-dasharray: none; stroke-linecap: butt; stroke-dashoffset: 0; stroke-linejoin: miter; stroke-miterlimit: 4; fill: rgb(6,50,123); fill-rule: nonzero; opacity: 1;"  transform=" translate(0, 0)" d="M -5.46056 -4.55047 L 3.9749100000000004 -4.55047 L 5.460570000000001 4.55047 L -2.3717499999999996 4.55047 z" stroke-linecap="round" />
</g>
		<g transform="matrix(1 0 0 0.9838822328 6.9809707667 18.7030052886)" id="8UPOseJnB0mRqGuLkK6qv"  >
<path style="stroke: rgb(0,0,0); stroke-width: 1; stroke-dasharray: none; stroke-linecap: butt; stroke-dashoffset: 0; stroke-linejoin: miter; stroke-miterlimit: 4; fill: rgb(6,50,123); fill-rule: nonzero; opacity: 1;"  transform=" translate(0, 0)" d="M -5.1572 -4.6332 L 5.1572 -4.6332 L 4.44016 4.63321 L -4.439190000000001 4.63321 z" stroke-linecap="round" />
</g>
		<g transform="matrix(1 0 0 0.9945690545 22.0388858246 18.7030052886)" id="AGPgbDMR9ZkR9vRoGAWRD"  >
<path style="stroke: rgb(0,0,0); stroke-width: 1; stroke-dasharray: none; stroke-linecap: butt; stroke-dashoffset: 0; stroke-linejoin: miter; stroke-miterlimit: 4; fill: rgb(6,50,123); fill-rule: nonzero; opacity: 1;"  transform=" translate(0, 0)" d="M -3.67154 -4.57805 L 5.212349999999999 -4.57805 L 3.6127899999999986 4.5780400000000006 L -5.212360000000002 4.5780400000000006 z" stroke-linecap="round" />
</g>
</g>
</g>
</svg>