<svg width="58" height="58" viewBox="0 0 58 58" fill="none" xmlns="http://www.w3.org/2000/svg">
<g id="bi:box-seam" clip-path="url(#clip0_186_352)">
<path id="Vector" d="M29.6742 4.03463C29.2415 3.86119 28.7585 3.86119 28.3258 4.03463L6.69175 12.6875L15.4062 16.1711L37.7145 7.25L29.6742 4.03463ZM42.5938 9.20388L20.2855 18.125L29 21.6086L51.3083 12.6875L42.5938 9.20388ZM54.375 15.3664L30.8125 24.7914V53.5086L54.375 44.0836V15.3664ZM27.1875 53.5122V24.7878L3.625 15.3664V44.0872L27.1875 53.5122ZM26.9809 0.667001C28.2771 0.148623 29.7229 0.148623 31.0191 0.667001L56.8617 11.0055C57.1977 11.1402 57.4857 11.3723 57.6886 11.6721C57.8915 11.9719 57.9999 12.3255 58 12.6875V44.0872C57.9995 44.8116 57.7821 45.5192 57.3757 46.1188C56.9693 46.7184 56.3925 47.1825 55.7199 47.4512L29.6742 57.8695C29.2415 58.0429 28.7585 58.0429 28.3258 57.8695L2.28375 47.4512C1.61041 47.1831 1.03292 46.7192 0.625827 46.1196C0.218739 45.5199 0.000747944 44.812 0 44.0872L0 12.6875C8.42448e-05 12.3255 0.108546 11.9719 0.311413 11.6721C0.51428 11.3723 0.802258 11.1402 1.13825 11.0055L26.9809 0.667001Z" fill="white"/>
</g>
<defs>
<clipPath id="clip0_186_352">
<rect width="58" height="58" fill="white"/>
</clipPath>
</defs>
</svg>
