<svg width="58" height="58" viewBox="0 0 58 58" fill="none" xmlns="http://www.w3.org/2000/svg">
<g id="bi:person-fill">
<path id="Vector" d="M10.875 50.75C10.875 50.75 7.25 50.75 7.25 47.125C7.25 43.5 10.875 32.625 29 32.625C47.125 32.625 50.75 43.5 50.75 47.125C50.75 50.75 47.125 50.75 47.125 50.75H10.875ZM29 29C31.8842 29 34.6503 27.8542 36.6898 25.8148C38.7292 23.7753 39.875 21.0092 39.875 18.125C39.875 15.2408 38.7292 12.4747 36.6898 10.4352C34.6503 8.39576 31.8842 7.25 29 7.25C26.1158 7.25 23.3497 8.39576 21.3102 10.4352C19.2708 12.4747 18.125 15.2408 18.125 18.125C18.125 21.0092 19.2708 23.7753 21.3102 25.8148C23.3497 27.8542 26.1158 29 29 29Z" fill="white"/>
</g>
</svg>
