<svg width="58" height="58" viewBox="0 0 58 58" fill="none" xmlns="http://www.w3.org/2000/svg">
<g id="ic:baseline-all-inbox">
<path id="Vector" d="M45.6667 7H11.8333C9.175 7 7 9.175 7 11.8333V28.75C7 31.4083 9.175 33.5833 11.8333 33.5833H45.6667C48.325 33.5833 50.5 31.4083 50.5 28.75V11.8333C50.5 9.175 48.325 7 45.6667 7ZM45.6667 21.5H36C36 25.415 32.665 28.75 28.75 28.75C24.835 28.75 21.5 25.415 21.5 21.5H11.8333V11.8333H45.6667V21.5ZM36 38.4167H50.5V45.6667C50.5 48.325 48.325 50.5 45.6667 50.5H11.8333C9.175 50.5 7 48.325 7 45.6667V38.4167H21.5C21.5 42.4283 24.7383 45.6667 28.75 45.6667C32.7617 45.6667 36 42.4283 36 38.4167Z" fill="white"/>
</g>
</svg>
